<?xml version="1.0" encoding="iso-8859-1"?>
<!-- Generator: Adobe Illustrator 18.0.0, SVG Export Plug-In . SVG Version: 6.00 Build 0)  -->
<!DOCTYPE svg PUBLIC "-//W3C//DTD SVG 1.1//EN" "http://www.w3.org/Graphics/SVG/1.1/DTD/svg11.dtd">
<svg version="1.1" id="Capa_1" xmlns="http://www.w3.org/2000/svg" xmlns:xlink="http://www.w3.org/1999/xlink" x="0px" y="0px"
	 viewBox="0 0 57.772 57.772" style="enable-background:new 0 0 57.772 57.772;" xml:space="preserve">
<g>
	<path d="M19.536,19.194h18.7c0.829,0,1.5-0.672,1.5-1.5V6.898c0-0.536-0.286-1.031-0.75-1.299l-9.35-5.398
		c-0.464-0.268-1.036-0.268-1.5,0l-9.35,5.398c-0.464,0.268-0.75,0.763-0.75,1.299v10.796
		C18.036,18.522,18.707,19.194,19.536,19.194z"/>
	<path d="M51.526,55.78L39.653,21.625c-0.21-0.604-0.778-1.008-1.417-1.008h-18.7c-0.639,0-1.207,0.404-1.417,1.008L6.246,55.78
		c-0.272,0.782,0.142,1.637,0.924,1.909c0.782,0.27,1.637-0.142,1.91-0.925l2.229-6.412l17.577-12.835l17.577,12.835l2.229,6.412
		c0.215,0.62,0.796,1.008,1.417,1.008c0.163,0,0.33-0.026,0.493-0.083C51.384,57.417,51.798,56.562,51.526,55.78z M20.602,23.618
		H37.17l1.147,3.299l-9.431,6.886l-9.431-6.886L20.602,23.618z M13.039,45.375l5.386-15.495l7.917,5.781L13.039,45.375z
		 M31.429,35.66l7.917-5.781l5.386,15.495L31.429,35.66z"/>
</g>
<g>
</g>
<g>
</g>
<g>
</g>
<g>
</g>
<g>
</g>
<g>
</g>
<g>
</g>
<g>
</g>
<g>
</g>
<g>
</g>
<g>
</g>
<g>
</g>
<g>
</g>
<g>
</g>
<g>
</g>
</svg>
