<svg height="480pt" viewBox="-104 0 480 480.00222" width="480pt" xmlns="http://www.w3.org/2000/svg"><path d="m267.925781 73.027344-128-72c-2.433593-1.371094-5.40625-1.371094-7.839843 0l-128 72c-3.175782 1.78125-4.746094 5.480468-3.824219 9 .921875 3.523437 4.105469 5.976562 7.742187 5.976562h8v208h-15.99999975v16h39.99999975v168h16v-27.929687l80-58.175781 80 58.175781v27.929687h16v-168h32v-16h-8v-208h8c3.640625 0 6.824219-2.453125 7.746094-5.976562.917969-3.519532-.652344-7.21875-3.824219-9zm-131.921875-55.847656 97.464844 54.824218h-194.925781zm104 246.824218h-208v-144h208zm-184 168.285156v-96.574218l66.402344 48.289062zm93.601563-48.285156 66.398437-48.289062v96.574218zm66.398437-68.074218-80 58.175781-80-58.175781v-3.925782h160zm-184-19.925782v-16h208v16zm208-192h-208v-16h208zm0 0"/><path d="m136.003906 248.003906c26.5-.027344 47.976563-21.503906 48-48 0-24.585937-37.886718-65-42.207031-69.523437-3.210937-3.167969-8.371094-3.167969-11.582031 0-4.320313 4.523437-42.210938 44.9375-42.210938 69.523437.027344 26.496094 21.503906 47.972656 48 48zm0-100.167968c14.234375 16.070312 32 40.117187 32 52.167968 0 17.671875-14.324218 32-32 32-17.671875 0-32-14.328125-32-32 0-12 17.777344-36.082031 32-52.167968zm0 0"/><path d="m136.003906 224.003906c4.417969 0 8-3.582031 8-8 0-4.421875-3.582031-8-8-8-4.417968 0-8-3.582031-8-8 0-4.421875-3.582031-8-8-8-4.417968 0-8 3.578125-8 8 0 13.253906 10.746094 24 24 24zm0 0"/></svg>